          <svg xmlns="http://www.w3.org/2000/svg" viewBox="0 0 76.48 18.48">
            <g id="Layer_2" data-name="Layer 2">
              <g id="Layer_1-2" data-name="Layer 1">
                <path d="M65.16,11.65l2.42-7.34,3.07,7.34Zm-2.64,4.58c-.33.95-.58,1.65-1.62,2v.23h3.19V18.3l-1-.59,1.74-5.24h6.19l2.29,5.11-1,.65,0,.25h4.14v-.3a2.94,2.94,0,0,1-1.62-1.8L68.15.67H68a4.7,4.7,0,0,1-1.32,1.92l.25.65Z" fill="white"/>
                <path d="M14.24.27,8.48,11.47l-.18-.32L2.47,0,0,.25V.4L.85,1.75V17L0,17.73V18H2.64v-.2L1.9,17V3l5.86,11.2H8.1L14,3V17l-.85.85V18h3.69v-.17l-.9-.93V1.2l.62-.7V.27Z" fill="white"/>
                <path d="M22.28,11.15,24.7,3.82l3.07,7.33Zm-2.64,4.59c-.32.94-.57,1.64-1.62,2V18h3.19v-.17l-1-.6L22,12h6.19l2.29,5.11-1,.65,0,.25H33.6v-.3A2.92,2.92,0,0,1,32,15.89L25.28.17h-.2a4.84,4.84,0,0,1-1.33,1.92l.25.65Z" fill="white"/>
                <path d="M34.89,18h4.16v-.3l-1.19-.8V9.28H39a3.51,3.51,0,0,1,3.17,2.12c.55.95,2.35,4.39,2.5,4.72a3.46,3.46,0,0,0,3.24,2.16c1.52,0,1.94-.44,1.94-.44l0-.18c-1.57.13-1.87-.27-2.87-1.79-.34-.53-1.62-3.07-2.14-4.14a7.35,7.35,0,0,0-2-2.52V9.06c1.87-.48,4.56-1.57,4.56-4.37S44.42.3,40.83.3h-6V.55l1.09,1V16.86l-1,.85Zm3-9.55V1.08H39.7c1.87,0,5.31,0,5.31,3.64s-4,3.74-6,3.74Z" fill="white"/>
                <path d="M62,3c.33-.95.37-1.74,1.42-2.11V.67H60.2V.85l.6.44L59.13,6,56.2,14.72,50.94,1.57l1-.65,0-.25H47.8V1a2.92,2.92,0,0,1,1.62,1.8l6.71,15.71h.33c.22-.52.12-.27.68-1.52L60,8.69Z" fill="white"/>
              </g>
            </g>
          </svg>