<?xml version="1.0" encoding="UTF-8"?>
<svg width="100pt" height="100pt" version="1.1" viewBox="0 0 100 100" xmlns="http://www.w3.org/2000/svg">
 <g>
  <path d="m36.125 33.344c4.2305-2.2383 6.3867-7.0742 5.2344-11.719s-5.3242-7.9023-10.109-7.9023-8.957 3.2578-10.109 7.9023 1.0039 9.4805 5.2344 11.719c-5.4727 1.7461-9.6797 6.1602-11.168 11.707h32.086c-1.4883-5.5469-5.6953-9.9609-11.168-11.707z"/>
  <path d="m89.582 49.219h-79.164c-0.55469 0-1.0859 0.21875-1.4766 0.60938s-0.60938 0.92188-0.60938 1.4727v4.168c0 0.55078 0.21875 1.082 0.60938 1.4727s0.92188 0.60938 1.4766 0.60938h2.082v16.668h75v-16.668h2.082c0.55469 0 1.0859-0.21875 1.4766-0.60938s0.60938-0.92188 0.60938-1.4727v-4.168c0-0.55078-0.21875-1.082-0.60938-1.4727s-0.92188-0.60938-1.4766-0.60938z"/>
  <path d="m12.5 84.637c0 0.55078 0.21875 1.082 0.60938 1.4727s0.92188 0.60938 1.4727 0.60938h70.836c0.55078 0 1.082-0.21875 1.4727-0.60938s0.60938-0.92188 0.60938-1.4727v-6.25h-75z"/>
  <path d="m73.625 33.344c4.2305-2.2383 6.3867-7.0742 5.2344-11.719s-5.3242-7.9023-10.109-7.9023-8.957 3.2578-10.109 7.9023 1.0039 9.4805 5.2344 11.719c-5.4727 1.7461-9.6797 6.1602-11.168 11.707h32.086c-1.4883-5.5469-5.6953-9.9609-11.168-11.707z"/>
 </g>
</svg>
