<?xml version="1.0" encoding="UTF-8"?>
<svg width="100pt" height="100pt" version="1.1" viewBox="0 0 100 100" xmlns="http://www.w3.org/2000/svg">
 <path d="m55.859 89.75c-0.015625-6.9336 2.832-13.566 7.8711-18.328-2.5078-4.9961-2.7617-10.82-0.69531-16.016 2.0625-5.1914 6.25-9.2539 11.5-11.16 5.25-1.9102 11.07-1.4805 15.984 1.1758v-24.531c0.14844-2.0859-0.97266-4.0586-2.8398-5l-3.3203-1.2891-7.8984-3.0703-9.0195-3.5312-8.1211-3.1094-8.1719-3.1797-0.21875-0.058594-0.21094-0.058594v-0.003906c-0.46875-0.11328-0.95703-0.11328-1.4297 0l-0.21094 0.058594-0.21875 0.058593-36.539 14.223c-1.8672 0.94141-2.9883 2.9141-2.8398 5v61.23h-4c-2.7852 0-5.0469 2.2578-5.0469 5.043 0 2.7891 2.2617 5.0469 5.0469 5.0469h50.379zm-9.8594-16.23l-28.539 0.73828v-7.1016l28.539-2.2266zm0-17.172l-28.539 3.7305v-7.0781l28.539-5.2383zm0-17.172l-28.539 6.7148v-7.1016l28.539-8.2109zm0-17.176l-28.539 9.6992v-7l28.539-11.078zm53.539 67.75v6.25c-0.027343 1.3867-1.1523 2.4961-2.5391 2.5h-31.48c-1.375-0.015625-2.4922-1.1211-2.5195-2.5v-6.1992c-0.007812-3.5977 1.0547-7.1133 3.0508-10.105 1.9961-2.9922 4.8359-5.3203 8.1602-6.6953-4.5039-3.0859-6.4727-8.75-4.8594-13.965 1.6172-5.2148 6.4414-8.7734 11.902-8.7734 5.4609 0 10.285 3.5586 11.902 8.7734s-0.35156 10.879-4.8555 13.965c3.3203 1.3672 6.1602 3.6875 8.1641 6.668 2 2.9844 3.0703 6.4922 3.0742 10.082z"/>
</svg>
