<?xml version="1.0" encoding="UTF-8"?>
<svg width="100pt" height="100pt" version="1.1" viewBox="0 0 100 100" xmlns="http://www.w3.org/2000/svg">
 <path d="m81.797 39.129v39.34c0 1.1875-0.96094 2.1523-2.1484 2.1523h-59.289c-1.1875 0-2.1484-0.96484-2.1484-2.1523v-39.34c0-0.83203 0.46875-1.5508 1.1602-1.9102l29.543-17.539c0.70703-0.41797 1.5547-0.38281 2.207 0.015624l29.621 17.586c0.67578 0.40234 1.0547 1.1133 1.0586 1.8477zm-21.148 23.41h9.2461c3.168 0 5.9727 1.6406 7.6055 4.1133v-26.305l-27.496-16.324-27.496 16.324v28.895c1.2305-1.5117 3.1016-2.4844 5.1914-2.4844h6.7969c3.6797 0 6.6875 3.0117 6.6875 6.6914v2.8672h1.0742v-2.8672c0-2.1367-0.875-4.0781-2.2812-5.4844-0.55469-0.55078-1.1875-1.0234-1.8867-1.3906 1.3828-1.1914 3.1797-1.9141 5.1406-1.9141h8.0156c4.3398 0 7.8867 3.5469 7.8867 7.8867v3.7695h1.0742v-3.7695c0-2.4688-1.0078-4.7109-2.6328-6.332-0.71875-0.72266-1.5625-1.3203-2.4961-1.7656 1.5391-1.1992 3.4727-1.9141 5.5664-1.9141zm-29.551-8.5312c3.0859 0 5.5938 2.5039 5.5938 5.5938 0 3.0898-2.5039 5.5938-5.5938 5.5938-3.0859 0-5.5938-2.5039-5.5938-5.5938 0-3.0859 2.5039-5.5938 5.5938-5.5938zm16.141-4.3867c3.6406 0 6.5938 2.9531 6.5938 6.5938 0 3.6445-2.9531 6.5977-6.5938 6.5977s-6.5938-2.9531-6.5938-6.5977c0-3.6406 2.9531-6.5938 6.5938-6.5938zm18.035-4.4297c4.2031 0 7.6094 3.4062 7.6094 7.6094s-3.4062 7.6094-7.6094 7.6094c-4.2031 0-7.6094-3.4062-7.6094-7.6094s3.4062-7.6094 7.6094-7.6094z" fill-rule="evenodd"/>
</svg>
