<?xml version="1.0" encoding="UTF-8"?>
<svg width="100pt" height="100pt" version="1.1" viewBox="0 0 100 100" xmlns="http://www.w3.org/2000/svg">
 <path d="m92.398 41.699c1.8008-20.5-13.398-38.598-33.898-40.398-8.8984-0.80078-17.301 1.6016-24.102 6.3008l-5.5-6.6992-1.1992 1c-20.199 15.297-24 44.098-8.6992 64.199 7.5 9.8008 18.199 15.699 29.5 17.398v11.398h-9.6016v4.1992h23.398v-4.1992h-9.6016v-11c10.102 0.60156 20.5-2.1016 29.301-8.3984l2.6016-2-5.1992-6.6992c7.2031-6.1016 12.102-14.902 13-25.102zm-34.297-36c3.8984 0.40234 7.5 1.4023 10.898 2.9023-2.3984 0-5 0.5-6.8984 2-1.6992 1.3984-2.3984 3.3984-2.3008 6 0.19922 2.8008 1.1992 4.8008 3.1016 6.1016 4 2.6992 10.398 0.5 10.699 0.39844 0.60156-0.19922 1.5-0.30078 1.6992-0.10156 0 0 0.10156 0.19922 0.10156 0.5 0 1.1992-2.8984 1.8984-4.3984 2-2 0-19.699 0.39844-20.102 8.1992-0.10156 1.3984 0.39844 2.6016 1.3984 3.6992 4.1016 4.3008 15.898 4.3984 17.301 4.3984h0.19922c0.10156 0 5.6992-0.80078 6.8984 3.3984 1.3008 4.3984 5.5 5.3984 8.1016 5.6992h0.89844c-3 7.3008-8.5 13.199-15.301 16.801-0.39844-2.6016-1.3984-4.1992-2.8984-4.8008-1.1016-0.39844-2.1016-0.19922-3 0.19922 0.10156-3.8008-0.80078-7.8984-5-7.6016-3.6992 0.19922-5.3984 3.3984-6.1016 6.6992-2.3008-2.8984-6.3984-4.1016-6.6016-4.1992-3-1-5.3984-0.69922-7.3008 0.69922-2.1992 1.6016-3 4.5-3.3008 6.6016-4.8984-3.5-8.6992-8.1992-11.102-13.699 2.1992 0.19922 5.1992-1.1016 9.1016-4 3.3008-2.3984 4.8008-4.6992 4.5-7-0.39844-3.1016-4-4.6016-4.1992-4.6016-0.39844-0.19922-1.3008-0.69922-1.3984-1.3008 0-0.10156 0.10156-1.3008 3.8984-3.3008 2.8984-1.5 4.5-3.3984 4.8984-5.8008 0.60156-4.1992-3.3984-7.8008-3.5-7.8984l-4.3008-4.5c6.5078-5.293 15.008-8.293 24.008-7.4922zm21.199 66.199c-18 12.801-43.102 9.1016-56.699-8.6016-13.5-17.699-10.5-43 6.6016-57l2.6016 3.1016c-7.7031 6.2031-12.906 15.301-13.805 25.801-1.8008 20.5 13.398 38.699 34 40.5 9.1992 0.80078 17.898-1.8008 24.898-6.8008z"/>
</svg>
