<?xml version="1.0" encoding="UTF-8"?>
<svg width="100pt" height="100pt" version="1.1" viewBox="0 0 100 100" xmlns="http://www.w3.org/2000/svg">
 <g>
  <path d="m69.5 48.344c-0.89062 0.86719-1.8398 1.6719-2.8438 2.4062-0.90625 0.69922-1.8672 1.3281-2.875 1.875-8.5586 4.8086-19.004 4.8086-27.562 0-1.0273-0.55859-2.0078-1.1953-2.9375-1.9062-0.98438-0.71094-1.9141-1.4961-2.7812-2.3438-7.2773 3.625-13.402 9.2031-17.688 16.117-4.2812 6.9102-6.5547 14.879-6.5625 23.008v3.125c0 0.82812 0.32812 1.625 0.91406 2.2109 0.58594 0.58594 1.3828 0.91406 2.2109 0.91406h81.25c0.82812 0 1.625-0.32812 2.2109-0.91406 0.58594-0.58594 0.91406-1.3828 0.91406-2.2109v-3.125c0-8.1367-2.2734-16.109-6.5547-23.027-4.2852-6.918-10.414-12.504-17.695-16.129z"/>
  <path d="m37.031 45.719c3.7578 2.7656 8.3008 4.2578 12.969 4.2578s9.2109-1.4922 12.969-4.2578c4.9805-3.6641 8.1758-9.2695 8.7969-15.422s-1.3945-12.277-5.5391-16.867c-4.1484-4.5859-10.043-7.2031-16.227-7.2031s-12.078 2.6172-16.227 7.2031c-4.1445 4.5898-6.1602 10.715-5.5391 16.867s3.8164 11.758 8.7969 15.422z"/>
 </g>
</svg>
