<?xml version="1.0" encoding="UTF-8"?>
<svg width="100pt" height="100pt" version="1.1" viewBox="0 0 100 100" xmlns="http://www.w3.org/2000/svg">
 <g>
  <path d="m4.8281 31.859c0.34375 5.1328 2.6445 7.5469 5.9375 10.957 0.42188 0.42188 0.84375 0.88281 1.2266 1.3008 13.68 14.406 46.668 47.051 47.855 48.238 2.5273 2.3359 4.293 2.9883 5.8242 2.6055 1.6484-0.46094 3.332-2.1445 5.3633-4.293 1.5703-1.6875 20.5-19.578 20.996-20.039 0.23047-0.23047 0.46094-0.46094 0.69141-0.69141 0.38281-0.38281 0.76562-0.76562 1.1484-1.1875 1.9531-2.0312 3.6406-4.4453 0.91797-7.0508-2.4141-2.3008-12.949-11.953-12.949-11.953-0.039063 0-0.039063-0.039063-0.078125-0.039063l-32.453-32.758c-1.9141-1.9531-3.332-3.3711-4.5586-4.5586-1.1875-1.1875-2.2227-2.1445-3.3711-3.2188l-0.078125-0.078125c-3.4492-3.2188-3.7539-3.4883-8.8516-3.6797-5.8242-0.23047-9.3477-0.26953-13.945-0.30469-1.5312 0-3.1797-0.039063-5.0586-0.078125-3.6406-0.039062-6.2852 0.61328-7.8945 2.0703-1.5312 1.3789-2.1836 3.6406-1.9531 6.8203l1.2656 18.047zm3.4102 13.371c-3.832-3.9453-6.4766-6.7031-6.9336-13.141l-1.2656-18.047c-0.30469-4.3281 0.76563-7.5078 3.1406-9.6562 2.3008-2.0703 5.7461-3.0273 10.305-2.9492 1.8789 0.039062 3.5234 0.039062 5.0586 0.078125 4.6758 0.039063 8.2773 0.11328 14.023 0.30469 6.4375 0.23047 6.8203 0.57422 11.109 4.6367l0.078125 0.078125c1.1094 1.0352 2.1836 2.0703 3.4102 3.2969 1.2266 1.2266 2.6445 2.6445 4.5977 4.5977l32.453 32.758c0.88281 0.80469 10.844 9.9609 12.949 11.953 5.0195 4.7891 2.375 8.7344-0.76562 12.031-0.38281 0.42188-0.80469 0.84375-1.2266 1.2266-0.23047 0.23047-0.46094 0.46094-0.65234 0.65234-0.039062 0.039063-0.039062 0.078125-0.078125 0.078125-0.039062 0.039063-19.309 18.277-20.844 19.887-2.375 2.5664-4.4844 4.5977-7.0117 5.2891-2.6836 0.72656-5.5547-0.078126-9.1172-3.4102l-0.039062-0.039062c-0.11328-0.11328-34.062-33.68-47.969-48.352-0.46094-0.46094-0.84375-0.88281-1.2266-1.2656z"/>
  <path d="m18.699 12.395c1.7227 0 3.2578 0.69141 4.3672 1.8008 1.1094 1.1094 1.8008 2.6836 1.8008 4.3672 0 1.7227-0.69141 3.2578-1.8008 4.3672-1.1094 1.1094-2.6836 1.8008-4.3672 1.8008-1.7227 0-3.2578-0.69141-4.3672-1.8008-1.1094-1.1094-1.8008-2.6836-1.8008-4.3672 0-1.7227 0.69141-3.2578 1.8008-4.3672 1.1094-1.1094 2.6836-1.8008 4.3672-1.8008zm2.5273 3.6797c-0.65234-0.65234-1.5312-1.0352-2.5273-1.0352-0.99609 0-1.8789 0.38281-2.5273 1.0352-0.65234 0.65234-1.0352 1.5312-1.0352 2.5273 0 0.99609 0.38281 1.8789 1.0352 2.5273 0.65234 0.65234 1.5312 1.0352 2.5273 1.0352 0.99609 0 1.8789-0.38281 2.5273-1.0352 0.65234-0.65234 1.0352-1.5312 1.0352-2.5273 0-0.99609-0.38281-1.8789-1.0352-2.5273z"/>
 </g>
</svg>
